<svg height="1278" width="720" xmlns="http://www.w3.org/2000/svg">
<rect height="1278" fill="#555" width="720"></rect>
<text fill="#7f7" font-family="Courier New" font-size="12" xml:space="preserve">
<tspan x="10" y="26">8 megabytes installed</tspan>
<tspan x="10" y="42"></tspan>
<tspan x="10" y="58">node_modules</tspan>
<tspan x="10" y="74">└─┬ node-red-dashboard@2.3.9 </tspan>
<tspan x="10" y="90">  ├─┬ serve-static@1.12.2 </tspan>
<tspan x="10" y="106">  │ ├── encodeurl@1.0.1 </tspan>
<tspan x="10" y="122">  │ ├── escape-html@1.0.3 </tspan>
<tspan x="10" y="138">  │ ├── parseurl@1.3.1 </tspan>
<tspan x="10" y="154">  │ └─┬ send@0.15.2 </tspan>
<tspan x="10" y="170">  │   ├─┬ debug@2.6.4 </tspan>
<tspan x="10" y="186">  │   │ └── ms@0.7.3 </tspan>
<tspan x="10" y="202">  │   ├── depd@1.1.0 </tspan>
<tspan x="10" y="218">  │   ├── destroy@1.0.4 </tspan>
<tspan x="10" y="234">  │   ├── etag@1.8.0 </tspan>
<tspan x="10" y="250">  │   ├── fresh@0.5.0 </tspan>
<tspan x="10" y="266">  │   ├─┬ http-errors@1.6.1 </tspan>
<tspan x="10" y="282">  │   │ ├── inherits@2.0.3 </tspan>
<tspan x="10" y="298">  │   │ └── setprototypeof@1.0.3 </tspan>
<tspan x="10" y="314">  │   ├── mime@1.3.4 </tspan>
<tspan x="10" y="330">  │   ├── ms@1.0.0 </tspan>
<tspan x="10" y="346">  │   ├─┬ on-finished@2.3.0 </tspan>
<tspan x="10" y="362">  │   │ └── ee-first@1.1.1 </tspan>
<tspan x="10" y="378">  │   ├── range-parser@1.2.0 </tspan>
<tspan x="10" y="394">  │   └── statuses@1.3.1 </tspan>
<tspan x="10" y="410">  └─┬ socket.io@1.7.3 </tspan>
<tspan x="10" y="426">    ├─┬ debug@2.3.3 </tspan>
<tspan x="10" y="442">    │ └── ms@0.7.2 </tspan>
<tspan x="10" y="458">    ├─┬ engine.io@1.8.3 </tspan>
<tspan x="10" y="474">    │ ├─┬ accepts@1.3.3 </tspan>
<tspan x="10" y="490">    │ │ ├─┬ mime-types@2.1.15 </tspan>
<tspan x="10" y="506">    │ │ │ └── mime-db@1.27.0 </tspan>
<tspan x="10" y="522">    │ │ └── negotiator@0.6.1 </tspan>
<tspan x="10" y="538">    │ ├── base64id@1.0.0 </tspan>
<tspan x="10" y="554">    │ ├── cookie@0.3.1 </tspan>
<tspan x="10" y="570">    │ ├─┬ debug@2.3.3 </tspan>
<tspan x="10" y="586">    │ │ └── ms@0.7.2 </tspan>
<tspan x="10" y="602">    │ ├─┬ engine.io-parser@1.3.2 </tspan>
<tspan x="10" y="618">    │ │ ├── after@0.8.2 </tspan>
<tspan x="10" y="634">    │ │ ├── arraybuffer.slice@0.0.6 </tspan>
<tspan x="10" y="650">    │ │ ├── base64-arraybuffer@0.1.5 </tspan>
<tspan x="10" y="666">    │ │ ├── blob@0.0.4 </tspan>
<tspan x="10" y="682">    │ │ └── wtf-8@1.0.0 </tspan>
<tspan x="10" y="698">    │ └─┬ ws@1.1.2 </tspan>
<tspan x="10" y="714">    │   ├── options@0.0.6 </tspan>
<tspan x="10" y="730">    │   └── ultron@1.0.2 </tspan>
<tspan x="10" y="746">    ├─┬ has-binary@0.1.7 </tspan>
<tspan x="10" y="762">    │ └── isarray@0.0.1 </tspan>
<tspan x="10" y="778">    ├── object-assign@4.1.0 </tspan>
<tspan x="10" y="794">    ├─┬ socket.io-adapter@0.5.0 </tspan>
<tspan x="10" y="810">    │ └─┬ debug@2.3.3 </tspan>
<tspan x="10" y="826">    │   └── ms@0.7.2 </tspan>
<tspan x="10" y="842">    ├─┬ socket.io-client@1.7.3 </tspan>
<tspan x="10" y="858">    │ ├── backo2@1.0.2 </tspan>
<tspan x="10" y="874">    │ ├── component-bind@1.0.0 </tspan>
<tspan x="10" y="890">    │ ├── component-emitter@1.2.1 </tspan>
<tspan x="10" y="906">    │ ├─┬ debug@2.3.3 </tspan>
<tspan x="10" y="922">    │ │ └── ms@0.7.2 </tspan>
<tspan x="10" y="938">    │ ├─┬ engine.io-client@1.8.3 </tspan>
<tspan x="10" y="954">    │ │ ├── component-emitter@1.2.1 </tspan>
<tspan x="10" y="970">    │ │ ├── component-inherit@0.0.3 </tspan>
<tspan x="10" y="986">    │ │ ├─┬ debug@2.3.3 </tspan>
<tspan x="10" y="1002">    │ │ │ └── ms@0.7.2 </tspan>
<tspan x="10" y="1018">    │ │ ├── has-cors@1.1.0 </tspan>
<tspan x="10" y="1034">    │ │ ├── parsejson@0.0.3 </tspan>
<tspan x="10" y="1050">    │ │ ├── parseqs@0.0.5 </tspan>
<tspan x="10" y="1066">    │ │ ├── xmlhttprequest-ssl@1.5.3 </tspan>
<tspan x="10" y="1082">    │ │ └── yeast@0.1.2 </tspan>
<tspan x="10" y="1098">    │ ├── indexof@0.0.1 </tspan>
<tspan x="10" y="1114">    │ ├── object-component@0.0.3 </tspan>
<tspan x="10" y="1130">    │ ├─┬ parseuri@0.0.5 </tspan>
<tspan x="10" y="1146">    │ │ └─┬ better-assert@1.0.2 </tspan>
<tspan x="10" y="1162">    │ │   └── callsite@1.0.0 </tspan>
<tspan x="10" y="1178">    │ └── to-array@0.1.4 </tspan>
<tspan x="10" y="1194">    └─┬ socket.io-parser@2.3.1 </tspan>
<tspan x="10" y="1210">      ├── component-emitter@1.1.2 </tspan>
<tspan x="10" y="1226">      ├─┬ debug@2.2.0 </tspan>
<tspan x="10" y="1242">      │ └── ms@0.7.1 </tspan>
<tspan x="10" y="1258">      └── json3@3.3.2</tspan>
</text>
</svg>
